<svg width="240" height="50" viewBox="0 0 240 50" fill="none" xmlns="http://www.w3.org/2000/svg">
<g id="Logo">
<path id="Logo_2" fill-rule="evenodd" clip-rule="evenodd" d="M38.516 49.9999H17.734C17.2508 50.0029 16.7689 49.9508 16.2978 49.8447L20.2608 29.4059H35.9935L39.9564 49.8478L39.4919 49.9401L38.516 49.9999ZM16.4403 29.4059L12.1882 47.487C11.8758 47.1497 11.6026 46.7789 11.3739 46.3816L0.983985 28.6245C0.339369 27.5232 0 26.2738 0 25.002C0 23.7302 0.339369 22.4809 0.983985 21.3795L11.3739 3.62251C12.0184 2.52121 12.9453 1.60666 14.0616 0.970781C15.1778 0.334903 16.444 9.26881e-05 17.7329 0H38.515C39.8039 9.26881e-05 41.0701 0.334903 42.1863 0.970781C43.3025 1.60666 44.2295 2.52121 44.8739 3.62251L55.266 21.3795C55.9106 22.4809 56.25 23.7302 56.25 25.002C56.25 26.2738 55.9106 27.5232 55.266 28.6245L44.875 46.3816C44.6466 46.7773 44.3742 47.1467 44.0629 47.4828L39.8108 29.4059H43.4984L42.5066 26.9591H39.2357L37.9005 21.2799H48.1789C46.46 20.4797 45.2439 19.497 44.959 18.1031C40.0755 18.1063 37.8484 16.4387 36.2901 13.1109C30.8924 14.0948 25.3576 14.0948 19.9599 13.1109C18.4016 16.4387 16.1735 18.1063 11.291 18.1031C11.004 19.5064 9.76984 20.4954 8.07114 21.2799H18.3495L17.0143 26.9591H13.7423L12.7505 29.4059H16.4403ZM21.8362 21.2799H34.4138L35.5151 26.9591H20.7391L21.8362 21.2799Z" fill="white"/>
<g id="SecDojo">
<path d="M83.268 38.5C81.218 38.5 79.2555 38.2125 77.3805 37.6375C75.5055 37.0375 74.018 36.275 72.918 35.35L74.6055 31.5625C75.6555 32.3875 76.9555 33.075 78.5055 33.625C80.0555 34.175 81.643 34.45 83.268 34.45C84.643 34.45 85.7555 34.3 86.6055 34C87.4555 33.7 88.0805 33.3 88.4805 32.8C88.8805 32.275 89.0805 31.6875 89.0805 31.0375C89.0805 30.2375 88.793 29.6 88.218 29.125C87.643 28.625 86.893 28.2375 85.968 27.9625C85.068 27.6625 84.0555 27.3875 82.9305 27.1375C81.8305 26.8875 80.718 26.6 79.593 26.275C78.493 25.925 77.4805 25.4875 76.5555 24.9625C75.6555 24.4125 74.918 23.6875 74.343 22.7875C73.768 21.8875 73.4805 20.7375 73.4805 19.3375C73.4805 17.9125 73.8555 16.6125 74.6055 15.4375C75.3805 14.2375 76.543 13.2875 78.093 12.5875C79.668 11.8625 81.6555 11.5 84.0555 11.5C85.6305 11.5 87.193 11.7 88.743 12.1C90.293 12.5 91.643 13.075 92.793 13.825L91.2555 17.6125C90.0805 16.9125 88.868 16.4 87.618 16.075C86.368 15.725 85.168 15.55 84.018 15.55C82.668 15.55 81.568 15.7125 80.718 16.0375C79.893 16.3625 79.2805 16.7875 78.8805 17.3125C78.5055 17.8375 78.318 18.4375 78.318 19.1125C78.318 19.9125 78.593 20.5625 79.143 21.0625C79.718 21.5375 80.4555 21.9125 81.3555 22.1875C82.2805 22.4625 83.3055 22.7375 84.4305 23.0125C85.5555 23.2625 86.668 23.55 87.768 23.875C88.893 24.2 89.9055 24.625 90.8055 25.15C91.7305 25.675 92.468 26.3875 93.018 27.2875C93.593 28.1875 93.8805 29.325 93.8805 30.7C93.8805 32.1 93.493 33.4 92.718 34.6C91.968 35.775 90.8055 36.725 89.2305 37.45C87.6555 38.15 85.668 38.5 83.268 38.5Z" fill="white"/>
<path d="M102.539 25.4125H113.414V29.0875H102.539V25.4125ZM103.177 34.3375H115.102V38.125H98.452V16.675H114.689V20.5H103.177V34.3375Z" fill="white"/>
<path d="M129.998 38.5C127.748 38.5 125.735 38.025 123.96 37.075C122.185 36.1 120.785 34.775 119.76 33.1C118.735 31.425 118.223 29.525 118.223 27.4C118.223 25.275 118.735 23.3875 119.76 21.7375C120.785 20.0625 122.185 18.75 123.96 17.8C125.735 16.825 127.748 16.3375 129.998 16.3375C131.948 16.3375 133.648 16.6375 135.098 17.2375C136.573 17.8125 137.823 18.725 138.848 19.975L135.773 22.9C135.023 22.025 134.173 21.3875 133.223 20.9875C132.273 20.5625 131.248 20.35 130.148 20.35C128.773 20.35 127.535 20.65 126.435 21.25C125.36 21.85 124.51 22.6875 123.885 23.7625C123.285 24.8125 122.985 26.025 122.985 27.4C122.985 28.775 123.285 30 123.885 31.075C124.51 32.15 125.36 32.9875 126.435 33.5875C127.535 34.1875 128.773 34.4875 130.148 34.4875C131.248 34.4875 132.273 34.275 133.223 33.85C134.173 33.425 135.023 32.775 135.773 31.9L138.848 34.8625C137.823 36.0875 136.573 37 135.098 37.6C133.623 38.2 131.923 38.5 129.998 38.5Z" fill="white"/>
<path d="M143.392 38.125V11.875H154.867C157.717 11.875 160.217 12.425 162.367 13.525C164.517 14.625 166.192 16.15 167.392 18.1C168.592 20.05 169.192 22.35 169.192 25C169.192 27.625 168.592 29.925 167.392 31.9C166.192 33.85 164.517 35.375 162.367 36.475C160.217 37.575 157.717 38.125 154.867 38.125H143.392ZM148.267 34H154.642C156.617 34 158.317 33.625 159.742 32.875C161.192 32.125 162.305 31.075 163.08 29.725C163.88 28.375 164.28 26.8 164.28 25C164.28 23.175 163.88 21.6 163.08 20.275C162.305 18.925 161.192 17.875 159.742 17.125C158.317 16.375 156.617 16 154.642 16H148.267V34Z" fill="white"/>
<path d="M184.199 38.5C181.924 38.5 179.886 38.025 178.086 37.075C176.311 36.1 174.911 34.775 173.886 33.1C172.861 31.425 172.349 29.525 172.349 27.4C172.349 25.275 172.861 23.3875 173.886 21.7375C174.911 20.0625 176.311 18.75 178.086 17.8C179.886 16.825 181.911 16.3375 184.161 16.3375C186.436 16.3375 188.461 16.825 190.236 17.8C192.036 18.75 193.449 20.0625 194.474 21.7375C195.499 23.3875 196.011 25.275 196.011 27.4C196.011 29.525 195.499 31.425 194.474 33.1C193.449 34.775 192.036 36.1 190.236 37.075C188.461 38.025 186.449 38.5 184.199 38.5ZM184.161 34.4875C185.536 34.4875 186.749 34.1875 187.799 33.5875C188.874 32.9625 189.711 32.1125 190.311 31.0375C190.911 29.9625 191.211 28.75 191.211 27.4C191.211 26.025 190.899 24.8125 190.274 23.7625C189.674 22.6875 188.849 21.85 187.799 21.25C186.749 20.65 185.549 20.35 184.199 20.35C182.849 20.35 181.636 20.65 180.561 21.25C179.486 21.85 178.636 22.6875 178.011 23.7625C177.411 24.8125 177.111 26.025 177.111 27.4C177.111 28.75 177.411 29.9625 178.011 31.0375C178.636 32.1125 179.486 32.9625 180.561 33.5875C181.636 34.1875 182.836 34.4875 184.161 34.4875Z" fill="white"/>
<path d="M203.598 38.5C202.098 38.5 200.735 38.225 199.51 37.675C198.285 37.125 197.31 36.325 196.585 35.275L199.473 32.3125C199.998 33.0125 200.598 33.5625 201.273 33.9625C201.948 34.3375 202.685 34.525 203.485 34.525C205.535 34.525 206.56 33.3 206.56 30.85V20.5H198.948V16.675H211.285V30.4375C211.285 33.1625 210.623 35.1875 209.298 36.5125C207.973 37.8375 206.073 38.5 203.598 38.5Z" fill="white"/>
<path d="M227.668 38.5C225.393 38.5 223.355 38.025 221.555 37.075C219.78 36.1 218.38 34.775 217.355 33.1C216.33 31.425 215.818 29.525 215.818 27.4C215.818 25.275 216.33 23.3875 217.355 21.7375C218.38 20.0625 219.78 18.75 221.555 17.8C223.355 16.825 225.38 16.3375 227.63 16.3375C229.905 16.3375 231.93 16.825 233.705 17.8C235.505 18.75 236.918 20.0625 237.943 21.7375C238.968 23.3875 239.48 25.275 239.48 27.4C239.48 29.525 238.968 31.425 237.943 33.1C236.918 34.775 235.505 36.1 233.705 37.075C231.93 38.025 229.918 38.5 227.668 38.5ZM227.63 34.4875C229.005 34.4875 230.218 34.1875 231.268 33.5875C232.343 32.9625 233.18 32.1125 233.78 31.0375C234.38 29.9625 234.68 28.75 234.68 27.4C234.68 26.025 234.368 24.8125 233.743 23.7625C233.143 22.6875 232.318 21.85 231.268 21.25C230.218 20.65 229.018 20.35 227.668 20.35C226.318 20.35 225.105 20.65 224.03 21.25C222.955 21.85 222.105 22.6875 221.48 23.7625C220.88 24.8125 220.58 26.025 220.58 27.4C220.58 28.75 220.88 29.9625 221.48 31.0375C222.105 32.1125 222.955 32.9625 224.03 33.5875C225.105 34.1875 226.305 34.4875 227.63 34.4875Z" fill="white"/>
</g>
</g>
</svg>
